<?xml version="1.0" encoding="utf-8"?>
<!-- Generator: Adobe Illustrator 24.1.2, SVG Export Plug-In . SVG Version: 6.00 Build 0)  -->
<svg version="1.1" id="Layer_1" xmlns="http://www.w3.org/2000/svg" xmlns:xlink="http://www.w3.org/1999/xlink" x="0px" y="0px"
	 viewBox="0 0 697 419" style="enable-background:new 0 0 697 419;" xml:space="preserve">
<style type="text/css">
	.st0{clip-path:url(#SVGID_2_);}
	.st1{clip-path:url(#SVGID_4_);}
	.st2{clip-path:url(#SVGID_6_);}
	.st3{fill:#006600;}
	.st4{font-family:'Arial-BoldMT';}
	.st5{font-size:5px;}
	.st6{font-family:'ArialMT';}
	.st7{fill:#FFFFFF;}
	.st8{font-size:15px;}
	.st9{font-size:9px;}
	.st10{opacity:0.6;}
	.st11{fill:#FF00CC;}
	.st12{font-size:18px;}
	.st13{clip-path:url(#SVGID_8_);}
	.st14{clip-path:url(#SVGID_10_);}
	.st15{clip-path:url(#SVGID_12_);}
	.st16{clip-path:url(#SVGID_14_);}
</style>
<g id="Background_Image">
	
		<image style="overflow:visible;enable-background:new    ;" width="2904" height="1746" id="Background_Image-2" xlink:href="45985803.png"  transform="matrix(0.24 0 0 0.24 0 0)">
	</image>
</g>
<g id="Lobby">
	
		<image style="overflow:visible;enable-background:new    ;" width="1729" height="369" id="Layer_1_Image-2" xlink:href="45985801.png"  transform="matrix(0.24 0 0 0.24 243.68 330.48)">
	</image>
	<g id="Artwork_1">
		<g>
			<g>
				<defs>
					<rect id="SVGID_1_" x="330.8" y="349.6" width="35" height="35"/>
				</defs>
				<clipPath id="SVGID_2_">
					<use xlink:href="#SVGID_1_"  style="overflow:visible;"/>
				</clipPath>
				<g class="st0">
					<g>
						<g>
							<defs>
								<rect id="SVGID_3_" x="330.8" y="349.6" width="35" height="35"/>
							</defs>
							<clipPath id="SVGID_4_">
								<use xlink:href="#SVGID_3_"  style="overflow:visible;"/>
							</clipPath>
							<g class="st1">
								<g>
									<g>
										<defs>
											<rect id="SVGID_5_" x="330.8" y="349.6" width="35" height="35"/>
										</defs>
										<clipPath id="SVGID_6_">
											<use xlink:href="#SVGID_5_"  style="overflow:visible;"/>
										</clipPath>
										<g class="st2">
											
												<image style="overflow:visible;enable-background:new    ;" width="46" height="46" xlink:href="45985800.png"  transform="matrix(0.763 0 0 0.763 330.78 349.65)">
											</image>
										</g>
									</g>
								</g>
							</g>
						</g>
					</g>
				</g>
			</g>
		</g>
	</g>
</g>
<g id="Lobby-2">
	<text transform="matrix(1 0 0 1 262.02 397.7)" class="st3 st4 st5">Lobby</text>
</g>
<g id="Auditorium-2">
	<text transform="matrix(1 0 0 1 289.55 397.71)" class="st3 st4 st5">Auditorium</text>
</g>
<g id="Exhibit_Hall">
	<text transform="matrix(1 0 0 1 327.67 398.19)" class="st3 st4 st5">Exhibit Hall</text>
</g>
<g id="Layer_3_Image">
	
		<image style="overflow:visible;enable-background:new    ;" width="2904" height="135" id="Layer_3_Image-2" xlink:href="45985802.png"  transform="matrix(0.24 0 0 0.24 0 0)">
	</image>
</g>
<g id="Store-2">
	<text transform="matrix(1 0 0 1 367.05 397.71)" class="st3 st4 st5">Store</text>
</g>
<g id="_2020_4DVXP.COM">
	<text transform="matrix(1 0 0 1 78.25 413.28)" class="st6 st5" style="text-decoration: underline;">2020 4DVX</text>
	<text transform="matrix(1 0 0 1 103.82 413.28)" class="st6 st5" style="text-decoration: underline;">P</text>
	<text transform="matrix(1 0 0 1 106.51 413.28)" class="st6 st5" style="text-decoration: underline;">.COM</text>
</g>
<g id="Contact_4D_Support">
	<text transform="matrix(1 0 0 1 191.4 413.28)" class="st6 st5" style="text-decoration: underline;">Contact 4D Support</text>
</g>
<g id="_4D_Privacy_Policy">
	<text transform="matrix(1 0 0 1 136.34 413.28)" class="st6 st5" style="text-decoration: underline;">4D Privacy Policy </text>
</g>
<g id="_Type_">
</g>
<g id="_4DVXP:_A_4D_Virtual_Experience">
	<text transform="matrix(1 0 0 1 12.98 20.64)" class="st7 st4 st8">4DVXP: </text>
	<text transform="matrix(1 0 0 1 71.33 20.64)" class="st7 st4 st8"> A</text>
	<text transform="matrix(1 0 0 1 85.22 20.64)" class="st7 st4 st8"> 4D </text>
	<text transform="matrix(1 0 0 1 112.73 20.64)" class="st7 st4 st8">V</text>
	<text transform="matrix(1 0 0 1 122.46 20.64)" class="st7 st4 st8">irtual Experience</text>
</g>
<g id="Layer_5_Image">
	
		<image style="overflow:visible;enable-background:new    ;" width="517" height="89" id="Layer_5_Image-2" xlink:href="45985806.png"  transform="matrix(0.24 0 0 0.24 506.88 4.08)">
	</image>
</g>
<g id="Search_Site">
	<text transform="matrix(1 0 0 1 626.13 19.44)" class="st7 st4 st9">Search Site</text>
</g>
<g id="Layer_7_Image" class="st10">
	
		<image style="overflow:visible;enable-background:new    ;" width="589" height="135" id="Layer_7_Image-2" xlink:href="F04B870.png"  transform="matrix(0.24 0 0 0.24 289.44 0)">
	</image>
</g>
<g id="SARC_Info">
	<text transform="matrix(1 0 0 1 312.24 21.6)" class="st11 st4 st12">SA</text>
	<text transform="matrix(1 0 0 1 339.24 21.6)" class="st11 st4 st12">R</text>
	<text transform="matrix(1 0 0 1 352.92 21.6)" class="st11 st4 st12">C In</text>
	<text transform="matrix(1 0 0 1 391.93 21.6)" class="st11 st4 st12">f</text>
	<text transform="matrix(1 0 0 1 398.63 21.6)" class="st11 st4 st12">o</text>
</g>
<g id="Layer_8_Image">
	
		<image style="overflow:visible;enable-background:new    ;" width="52" height="60" id="Layer_8_Image-2" xlink:href="F04B877.png"  transform="matrix(0.24 0 0 0.24 55.92 402.48)">
	</image>
</g>
<image style="overflow:visible;enable-background:new    ;" width="489" height="284" id="tv_1_" xlink:href="tv.jpg"  transform="matrix(0.24 0 0 0.24 213.8936 86.1702)">
</image>
<g id="tv_2_">
	<g>
		<g>
			<defs>
				<rect id="SVGID_7_" x="213.9" y="86.2" width="117.4" height="68.2"/>
			</defs>
			<clipPath id="SVGID_8_">
				<use xlink:href="#SVGID_7_"  style="overflow:visible;"/>
			</clipPath>
			<g class="st13">
				<g>
					<defs>
						<rect id="SVGID_9_" x="213.9" y="86.2" width="117.4" height="68.2"/>
					</defs>
					<clipPath id="SVGID_10_">
						<use xlink:href="#SVGID_9_"  style="overflow:visible;"/>
					</clipPath>
					<g class="st14">
						
							<image style="overflow:visible;enable-background:new    ;" width="496" height="288" xlink:href="F04B870.jpg"  transform="matrix(0.2366 0 0 0.2366 213.8936 86.1778)">
						</image>
					</g>
				</g>
			</g>
		</g>
	</g>
</g>
<image style="overflow:visible;" width="250" height="150" id="Door_2_" xlink:href="../../../AppData/Roaming/Adobe/Creative Cloud Libraries/LIBS/C09F012C5D0AAE530A495FAC_gsu.edu/creative_cloud/dcx/0b4976f7-1122-4afe-8800-20bf7ea3e60e/components/07767056-1076-4989-aba4-ad978fbdb33a.png"  transform="matrix(0.398 0 0 0.3463 416.37 330.48)">
</image>
<image style="overflow:visible;" width="45" height="45" id="store_2_" xlink:href="../../../AppData/Roaming/Adobe/Creative Cloud Libraries/LIBS/C09F012C5D0AAE530A495FAC_gsu.edu/creative_cloud/dcx/0b4976f7-1122-4afe-8800-20bf7ea3e60e/components/12ccbd90-3823-44d6-9984-e8bd74a67acd.png"  transform="matrix(1 0 0 1 368.24 339.2374)">
</image>
<image style="overflow:visible;" width="45" height="45" id="lobby_2_" xlink:href="../../../AppData/Roaming/Adobe/Creative Cloud Libraries/LIBS/C09F012C5D0AAE530A495FAC_gsu.edu/creative_cloud/dcx/0b4976f7-1122-4afe-8800-20bf7ea3e60e/components/19762fa0-62be-46c7-92ea-089319da0530.png"  transform="matrix(1 0 0 1 245.9784 340.52)">
</image>
<image style="overflow:visible;" width="45" height="45" id="auditorium_2_" xlink:href="../../../AppData/Roaming/Adobe/Creative Cloud Libraries/LIBS/C09F012C5D0AAE530A495FAC_gsu.edu/creative_cloud/dcx/0b4976f7-1122-4afe-8800-20bf7ea3e60e/components/9e3a480f-e809-412c-bf8a-c9770ed64727.png"  transform="matrix(1 0 0 1 285.83 339.3525)">
</image>
<g id="Artwork_1_2_">
	<g>
		<defs>
			<rect id="SVGID_11_" x="326.7" y="338.8" width="45" height="45"/>
		</defs>
		<clipPath id="SVGID_12_">
			<use xlink:href="#SVGID_11_"  style="overflow:visible;"/>
		</clipPath>
		<g class="st15">
			<defs>
				<rect id="SVGID_13_" x="326.7" y="338.8" width="45" height="45"/>
			</defs>
			<clipPath id="SVGID_14_">
				<use xlink:href="#SVGID_13_"  style="overflow:visible;"/>
			</clipPath>
			<g class="st16">
				<defs>
					<rect id="SVGID_15_" x="326.7" y="338.8" width="45" height="45"/>
				</defs>
				<clipPath id="SVGID_16_">
					<use xlink:href="#SVGID_15_"  style="overflow:visible;"/>
				</clipPath>
				<g style="clip-path:url(#SVGID_16_);">
					
						<image style="overflow:visible;" width="45" height="45" xlink:href="BB5AB97E.png"  transform="matrix(1 0 0 1 326.7194 338.7914)">
					</image>
				</g>
			</g>
		</g>
	</g>
</g>
<image style="overflow:visible;" width="399" height="144" id="attendeeGuide_1_" xlink:href="../../../AppData/Roaming/Adobe/Creative Cloud Libraries/LIBS/C09F012C5D0AAE530A495FAC_gsu.edu/creative_cloud/dcx/0b4976f7-1122-4afe-8800-20bf7ea3e60e/components/6e832fd8-6da2-496e-b8a8-3418ce584511.jpg"  transform="matrix(0.24 0 0 0.24 194.3957 198.4317)">
</image>
<image style="overflow:visible;" width="356" height="125" id="exhibitSign_1_" xlink:href="../../../AppData/Roaming/Adobe/Creative Cloud Libraries/LIBS/C09F012C5D0AAE530A495FAC_gsu.edu/creative_cloud/dcx/0b4976f7-1122-4afe-8800-20bf7ea3e60e/components/ab199408-ce82-4f81-8f94-de3362b9e7de.jpg"  transform="matrix(0.24 0 0 0.24 212.9 303.6834)">
</image>
</svg>
